<svg width="38" height="48" viewBox="0 0 38 48" fill="none" xmlns="http://www.w3.org/2000/svg">
<path d="M37.3604 22.173C37.0092 21.7716 29.0832 13.1432 19 13.1432C8.86667 13.1432 0.990759 21.8218 0.639604 22.173C-0.213201 23.1261 -0.213201 24.5307 0.639604 25.4838C0.990759 25.8852 8.91683 34.5135 19 34.5135C29.1333 34.5135 37.0092 25.835 37.3604 25.4838C38.2132 24.5307 38.2132 23.1261 37.3604 22.173ZM19 31.0522C14.9868 31.0522 11.7261 27.8416 11.7261 23.8284C11.7261 19.8152 14.9868 16.5545 19 16.5545C23.0132 16.5545 26.2739 19.8152 26.2739 23.8284C26.2739 27.8416 23.0132 31.0522 19 31.0522Z" fill="white"/>
<path d="M19 19.6647C18.7993 19.6647 18.5987 19.6647 18.398 19.7149C18.4983 20.0159 18.5987 20.3168 18.5987 20.6178C18.5987 21.872 17.5954 22.8753 16.3412 22.8753C15.8396 22.8753 15.4383 22.7248 15.037 22.4739C14.8865 22.8753 14.7861 23.3267 14.7861 23.8284C14.7861 26.136 16.6422 27.9921 18.9498 27.9921C21.2574 27.9921 23.1135 26.136 23.1135 23.8284C23.1637 21.5208 21.3076 19.6647 19 19.6647Z" fill="white"/>
<path d="M19 8.97954C20.204 8.97954 21.1571 8.0264 21.1571 6.82244V2.1571C21.1571 0.953135 20.204 0 19 0C17.796 0 16.8429 0.953135 16.8429 2.1571V6.77228C16.8429 7.97624 17.796 8.97954 19 8.97954Z" fill="white"/>
<path d="M6.91026 10.8356C7.31158 11.4878 8.0139 11.8389 8.76637 11.8389C9.16769 11.8389 9.56901 11.7386 9.92017 11.4878C10.9235 10.8356 11.2245 9.53135 10.6225 8.47788L8.16439 4.56501C7.51224 3.56171 6.20795 3.26072 5.15449 3.8627C4.15119 4.51485 3.8502 5.81914 4.45218 6.8726L6.91026 10.8356Z" fill="white"/>
<path d="M28.0798 11.5881C28.431 11.7888 28.8323 11.9393 29.2336 11.9393C29.936 11.9393 30.6884 11.5881 31.0897 10.936L33.5478 7.0231C34.2 6.0198 33.899 4.66534 32.8455 4.0132C31.8422 3.36105 30.4878 3.66204 29.8356 4.71551L27.3775 8.62838C26.7756 9.63168 27.0765 10.936 28.0798 11.5881Z" fill="white"/>
<path d="M19 38.6772C17.796 38.6772 16.8429 39.6304 16.8429 40.8343V45.4495C16.8429 46.6535 17.796 47.6066 19 47.6066C20.204 47.6066 21.1571 46.6535 21.1571 45.4495V40.8845C21.1571 39.6805 20.204 38.6772 19 38.6772Z" fill="white"/>
<path d="M31.0897 36.8211C30.6884 36.169 29.9861 35.8178 29.2336 35.8178C28.8323 35.8178 28.431 35.9182 28.0798 36.169C27.0765 36.8211 26.7756 38.1254 27.3775 39.1789L29.8356 43.0918C30.4878 44.0951 31.7921 44.3961 32.8455 43.7941C33.8488 43.1419 34.1498 41.8376 33.5478 40.7842L31.0897 36.8211Z" fill="white"/>
<path d="M9.92015 36.0687C9.569 35.868 9.16768 35.7175 8.76636 35.7175C8.06405 35.7175 7.31157 36.0687 6.91025 36.7208L4.45216 40.6838C3.80002 41.6871 4.10101 43.0416 5.15447 43.6937C6.15777 44.3459 7.51223 44.0449 8.16438 42.9914L10.6225 39.0786C11.2244 38.0251 10.9235 36.7208 9.92015 36.0687Z" fill="white"/>
</svg>

